<svg width="31" height="31" viewBox="0 0 31 31" fill="none" xmlns="http://www.w3.org/2000/svg">
<path d="M15.5 0C6.93756 0 0 6.94227 0 15.5C0 24.0624 6.94227 31 15.5 31C24.0578 31 31 24.0624 31 15.5C31 6.93756 24.0578 0 15.5 0ZM15.5 27.5571C8.84975 27.5571 3.44288 22.1503 3.44288 15.5C3.44288 8.84974 8.84975 3.44288 15.5 3.44288C22.1503 3.44288 27.5571 8.84974 27.5571 15.5C27.5571 22.1503 22.1456 27.5571 15.5 27.5571Z" fill="#E22726"/>
<path d="M14.344 17.6029L9.73785 13.4771L7.43945 16.0392L14.6502 22.5011L23.7025 12.083L21.1026 9.82227L14.344 17.6029Z" fill="#E22726"/>
</svg>
