<svg width="24" height="19" viewBox="0 0 24 19" fill="none" xmlns="http://www.w3.org/2000/svg">
<path d="M1 6.5H23M4.91111 18H19.0889C20.4579 18 21.1425 18 21.6653 17.7353C22.1253 17.5025 22.4993 17.1309 22.7336 16.674C23 16.1545 23 15.4744 23 14.1143V5.52857C23 4.16845 23 2.84552 22.7336 2.32602C22.4993 1.86905 22.1253 1.49753 21.6653 1.2647C21.1425 1 20.4579 1 19.0889 1H4.91111C3.5421 1 2.85758 1 2.33469 1.2647C1.87473 1.49753 1.50078 1.86905 1.26643 2.32602C1 2.84552 1 4.16844 1 5.52857V14.1143C1 15.4744 1 16.1545 1.26643 16.674C1.50078 17.1309 1.87473 17.5025 2.33469 17.7353C2.85758 18 3.54209 18 4.91111 18Z" stroke="white" stroke-width="2" stroke-linecap="round" stroke-linejoin="round"/>
</svg>
