<svg width="26" height="23" viewBox="0 0 26 23" fill="none" xmlns="http://www.w3.org/2000/svg">
<path d="M12.9318 9.4V22M12.9318 9.4C12.9318 6.45972 12.9318 4.98959 12.3538 3.86655C11.8454 2.8787 11.0341 2.07555 10.0363 1.57221C8.90193 1 7.41694 1 4.44697 1H3.12121C2.37872 1 2.00747 1 1.72388 1.14305C1.47442 1.26889 1.27161 1.46968 1.14449 1.71664C1 1.9974 1 2.36493 1 3.1V17.275C1 18.0101 1 18.3776 1.14449 18.6584C1.27161 18.9054 1.47442 19.1061 1.72388 19.2319C2.00747 19.375 2.37872 19.375 3.12121 19.375H7.0278C7.74396 19.375 8.10203 19.375 8.44829 19.4362C8.75562 19.4904 9.05544 19.5801 9.34155 19.7039C9.66388 19.8432 9.96182 20.0398 10.5577 20.4331L12.9318 22M12.9318 9.4C12.9318 6.45972 12.9318 4.98959 13.5098 3.86655C14.0183 2.8787 14.8295 2.07555 15.8273 1.57221C16.9617 1 18.4467 1 21.4167 1H22.7424C23.485 1 23.8562 1 24.1398 1.14305C24.3893 1.26889 24.592 1.46968 24.7191 1.71664C24.8636 1.9974 24.8636 2.36493 24.8636 3.1V17.275C24.8636 18.0101 24.8636 18.3776 24.7191 18.6584C24.592 18.9054 24.3893 19.1061 24.1398 19.2319C23.8562 19.375 23.485 19.375 22.7424 19.375H18.8358C18.1196 19.375 17.7616 19.375 17.4154 19.4362C17.108 19.4904 16.8082 19.5801 16.5221 19.7039C16.1998 19.8432 15.9018 20.0398 15.306 20.4331L12.9318 22" stroke="white" stroke-width="2" stroke-linecap="round" stroke-linejoin="round"/>
</svg>
