<svg width="25" height="22" viewBox="0 0 25 22" fill="none" xmlns="http://www.w3.org/2000/svg">
<path d="M24.0004 20.1669C24.0004 17.9414 21.867 16.0483 18.8892 15.3465M16.3336 20.167C16.3336 17.3442 12.901 15.0558 8.6668 15.0558C4.43254 15.0558 1 17.3442 1 20.167M16.3336 11.2224C19.1564 11.2224 21.4448 8.93398 21.4448 6.1112C21.4448 3.28836 19.1564 1 16.3336 1M8.6668 11.2224C5.84396 11.2224 3.5556 8.93398 3.5556 6.1112C3.5556 3.28836 5.84396 1 8.6668 1C11.4896 1 13.778 3.28836 13.778 6.1112C13.778 8.93398 11.4896 11.2224 8.6668 11.2224Z" stroke="white" stroke-width="2" stroke-linecap="round" stroke-linejoin="round"/>
</svg>
