<svg width="26" height="26" viewBox="0 0 26 26" fill="none" xmlns="http://www.w3.org/2000/svg">
<path fill-rule="evenodd" clip-rule="evenodd" d="M20.5501 0.685829C21.4683 0.265773 23.128 -0.195414 24.4085 1.1039C25.689 2.40334 25.2344 4.08801 24.8206 5.01988C24.5192 5.69831 24.1053 6.42014 23.581 6.95242L19.9393 10.6485L22.785 22.2012C23.1556 23.7059 21.2167 24.6341 20.3084 23.3868L14.8174 15.8468L11.523 19.1904L10.8414 24.0325C10.6601 25.3198 9.00893 25.6999 8.29822 24.6179L5.46921 20.3111L0.853186 17.0676C-0.2331 16.3044 0.236474 14.5786 1.55484 14.4894L6.62289 14.1465L9.88246 10.8383L2.45345 5.2653C1.22446 4.34336 2.13901 2.37555 3.62163 2.75174L15.0043 5.6399L18.646 1.94395C19.1704 1.41169 19.8817 0.991646 20.5501 0.685829ZM20.2642 3.64064L16.2769 7.68754C15.9301 8.0394 15.4269 8.18084 14.9513 8.06016L7.60976 6.19737L12.1341 9.59141C12.8204 10.1062 12.8949 11.12 12.2915 11.7323L8.02063 16.067C7.78157 16.3096 7.46385 16.4559 7.12652 16.4788L4.36764 16.6654L7.1585 18.6264L8.88287 21.2515L9.26383 18.5449C9.30654 18.2415 9.44508 17.9603 9.65863 17.7436L13.9364 13.4018C14.5399 12.7895 15.5387 12.865 16.0458 13.5616L19.39 18.1535L17.5546 10.7023C17.4357 10.2196 17.5751 9.70892 17.9218 9.35705L21.9091 5.31016C22.007 5.19189 22.4252 4.66768 22.6998 4.04955C23.0349 3.29515 22.9403 2.9528 22.7636 2.77355C22.5868 2.59419 22.2494 2.49828 21.5061 2.83832C20.8972 3.11693 20.3807 3.54142 20.2642 3.64064Z" fill="white" stroke="#C72021" stroke-width="0.5"/>
</svg>
