<svg width="32" height="32" viewBox="0 0 32 32" fill="none" xmlns="http://www.w3.org/2000/svg">
<path d="M24.6673 23.9997C24.6673 25.4725 23.4735 26.6663 22.0007 26.6663C20.5279 26.6663 19.334 25.4725 19.334 23.9997M24.6673 23.9997C24.6673 22.5269 23.4735 21.333 22.0007 21.333C20.5279 21.333 19.334 22.5269 19.334 23.9997M24.6673 23.9997H28.6673M19.334 23.9997H18.0007M18.0007 23.9997H11.334M18.0007 23.9997V9.59967C18.0007 8.10621 18.0006 7.35946 17.71 6.78903C17.4544 6.28726 17.0464 5.87931 16.5447 5.62366C15.9743 5.33301 15.2275 5.33301 13.734 5.33301H7.60065C6.10718 5.33301 5.36044 5.33301 4.79001 5.62366C4.28824 5.87931 3.88029 6.28726 3.62464 6.78903C3.33398 7.35946 3.33398 8.10621 3.33398 9.59967V21.333C3.33398 22.8058 4.52789 23.9997 6.00065 23.9997M18.0007 23.9997V10.6663H23.334L27.334 17M11.334 23.9997C11.334 25.4725 10.1401 26.6663 8.66732 26.6663C7.19456 26.6663 6.00065 25.4725 6.00065 23.9997M11.334 23.9997C11.334 22.5269 10.1401 21.333 8.66732 21.333C7.19456 21.333 6.00065 22.5269 6.00065 23.9997M27.334 17V23.9997M27.334 17H18.0007" stroke="white" stroke-width="2" stroke-linecap="round" stroke-linejoin="round"/>
</svg>
