<svg width="33" height="33" viewBox="0 0 33 33" fill="none" xmlns="http://www.w3.org/2000/svg">
<path d="M24.8857 11.8628C24.7959 14.1931 23.9143 16.4231 22.3864 18.1849C21.934 18.689 21.5889 19.28 21.3721 19.9218V21.7229C21.3721 22.1605 21.1983 22.5802 20.8888 22.8896C20.5794 23.199 20.1597 23.3729 19.7221 23.3729H13.2784C12.8408 23.3729 12.4211 23.199 12.1117 22.8896C11.8023 22.5802 11.6284 22.1605 11.6284 21.7229V19.9218C11.4116 19.28 11.0665 18.6891 10.6141 18.1849C9.085 16.4236 8.20216 14.1935 8.11133 11.8628C8.11128 9.92674 8.7809 8.05024 10.0066 6.55157C11.2323 5.05291 12.9387 4.02434 14.8363 3.64032C16.7339 3.2563 18.706 3.54047 20.418 4.44463C22.1299 5.34878 23.4765 6.81727 24.2292 8.60103C24.6668 9.6339 24.8913 10.7445 24.8892 11.8663L24.8857 11.8628ZM23.2357 11.8628C23.2357 10.0765 22.5261 8.36326 21.263 7.10012C19.9998 5.83697 18.2866 5.12734 16.5003 5.12734C14.7139 5.12734 13.0007 5.83697 11.7376 7.10012C10.4744 8.36326 9.7648 10.0765 9.7648 11.8628C9.7648 15.967 13.2784 17.7837 13.2784 19.9218V21.7229H19.7221V19.9218C19.7221 17.7837 23.2357 15.967 23.2357 11.8628ZM20.5471 25.3094C20.5473 25.4179 20.5262 25.5254 20.4848 25.6257C20.4435 25.726 20.3827 25.8171 20.3061 25.8939C20.2295 25.9707 20.1384 26.0316 20.0382 26.0732C19.938 26.1148 19.8306 26.1362 19.7221 26.1362H13.2784C13.0596 26.1362 12.8498 26.0493 12.6951 25.8945C12.5404 25.7398 12.4534 25.53 12.4534 25.3112C12.4534 25.0924 12.5404 24.8825 12.6951 24.7278C12.8498 24.5731 13.0596 24.4862 13.2784 24.4862H19.7221C19.9406 24.4862 20.1502 24.5729 20.3049 24.7272C20.4595 24.8815 20.5467 25.0909 20.5471 25.3094ZM19.4355 27.5013C19.4636 27.5826 19.4657 27.6706 19.4414 27.7531C19.4171 27.8356 19.3677 27.9085 19.3001 27.9616C18.4868 28.5931 17.4865 28.9359 16.4569 28.9359C15.4272 28.9359 14.4269 28.5931 13.6136 27.9616C13.5453 27.9092 13.4952 27.8366 13.4703 27.7542C13.4453 27.6718 13.4469 27.5837 13.4747 27.5022C13.5025 27.4207 13.5552 27.3499 13.6253 27.2999C13.6954 27.25 13.7794 27.2232 13.8655 27.2234H19.0465C19.1324 27.2234 19.2163 27.2501 19.2863 27.2999C19.3563 27.3497 19.4074 27.4201 19.4355 27.5013Z" fill="white" stroke="white" stroke-width="0.3"/>
</svg>
