<svg width="25" height="19" viewBox="0 0 25 19" fill="none" xmlns="http://www.w3.org/2000/svg">
<path d="M7.237 1.80661L23.8481 1.80755M7.237 9.6528L23.8481 9.65385M7.237 17.499L23.8481 17.5M1.63889 1.65385H1.65167M1.63889 9.5H1.65167M1.63889 17.3462H1.65167M2.27778 1.65385C2.27778 2.01495 1.99173 2.30769 1.63889 2.30769C1.28604 2.30769 1 2.01495 1 1.65385C1 1.29274 1.28604 1 1.63889 1C1.99173 1 2.27778 1.29274 2.27778 1.65385ZM2.27778 9.5C2.27778 9.86105 1.99173 10.1538 1.63889 10.1538C1.28604 10.1538 1 9.86105 1 9.5C1 9.13895 1.28604 8.84615 1.63889 8.84615C1.99173 8.84615 2.27778 9.13895 2.27778 9.5ZM2.27778 17.3462C2.27778 17.7072 1.99173 18 1.63889 18C1.28604 18 1 17.7072 1 17.3462C1 16.9851 1.28604 16.6923 1.63889 16.6923C1.99173 16.6923 2.27778 16.9851 2.27778 17.3462Z" stroke="white" stroke-width="2" stroke-linecap="round" stroke-linejoin="round"/>
</svg>
