<svg width="23" height="26" viewBox="0 0 23 26" fill="none" xmlns="http://www.w3.org/2000/svg">
<path d="M11.4102 0C13.2385 0.000101811 14.9923 0.726718 16.2852 2.01953C17.578 3.31248 18.3046 5.06609 18.3047 6.89453V10.1602H19.3135C21.2505 10.1604 22.8212 11.7309 22.8213 13.668V21.5703C22.8213 23.5075 21.2506 25.0779 19.3135 25.0781H3.50781C1.5705 25.0781 0 23.5076 0 21.5703V13.668C0.000117635 11.7307 1.57057 10.1602 3.50781 10.1602H4.51562V6.89453C4.51567 5.066 5.24219 3.3125 6.53516 2.01953C7.82811 0.726684 9.58172 4.3248e-05 11.4102 0ZM3.50781 12.6602C2.95128 12.6602 2.50012 13.1115 2.5 13.668V21.5703C2.5 22.1269 2.95121 22.5781 3.50781 22.5781H19.3135C19.8699 22.5779 20.3213 22.1268 20.3213 21.5703V13.668C20.3212 13.1116 19.8698 12.6604 19.3135 12.6602H3.50781ZM11.4102 2.5C10.2448 2.50004 9.12684 2.9631 8.30273 3.78711C7.47861 4.61124 7.01567 5.72904 7.01562 6.89453V10.1602H15.8047V6.89453C15.8046 5.72914 15.3416 4.61122 14.5176 3.78711C13.6935 2.96314 12.5755 2.5001 11.4102 2.5Z" fill="#B0B0B0"/>
</svg>
