<svg width="25" height="17" viewBox="0 0 25 17" fill="none" xmlns="http://www.w3.org/2000/svg">
<path d="M1.54394 10.8324C2.60699 5.45885 7.05094 1.64077 12.0498 1.64077C17.0471 1.64077 21.4911 5.45885 22.5557 10.8324C22.5978 11.0456 22.7188 11.2325 22.8918 11.3519C23.0649 11.4713 23.2759 11.5134 23.4784 11.469C23.681 11.4246 23.8585 11.2973 23.972 11.1152C24.0854 10.933 24.1254 10.7109 24.0832 10.4977C22.8721 4.38579 17.8062 0 12.0498 0C6.2934 0 1.22751 4.38579 0.0163756 10.4977C-0.0257914 10.7109 0.0142381 10.933 0.127658 11.1152C0.241078 11.2973 0.418598 11.4246 0.621165 11.469C0.823732 11.5134 1.03475 11.4713 1.20781 11.3519C1.38086 11.2325 1.50177 11.0456 1.54394 10.8324ZM12.0342 4.92232C13.4811 4.92232 14.8688 5.52735 15.8919 6.60432C16.915 7.68128 17.4898 9.14196 17.4898 10.665C17.4898 12.1881 16.915 13.6488 15.8919 14.7257C14.8688 15.8027 13.4811 16.4077 12.0342 16.4077C10.5873 16.4077 9.19967 15.8027 8.17655 14.7257C7.15343 13.6488 6.57865 12.1881 6.57865 10.665C6.57865 9.14196 7.15343 7.68128 8.17655 6.60432C9.19967 5.52735 10.5873 4.92232 12.0342 4.92232Z" fill="#E22726"/>
</svg>
